<svg width="32" height="32" viewBox="0 0 32 32" fill="none" xmlns="http://www.w3.org/2000/svg">
  <rect width="32" height="32" rx="6" fill="#080808"/>
  <defs>
    <linearGradient id="g" x1="0%" y1="0%" x2="100%" y2="100%">
      <stop offset="0%" stop-color="#10B981"/>
      <stop offset="50%" stop-color="#34D399"/>
      <stop offset="100%" stop-color="#064E3B"/>
    </linearGradient>
  </defs>
  <g fill="none" stroke="url(#g)" stroke-width="0.8" opacity="0.85">
    <ellipse cx="16" cy="16" rx="11" ry="5.5" transform="rotate(0 16 16)"/>
    <ellipse cx="16" cy="16" rx="11" ry="5.5" transform="rotate(15 16 16)"/>
    <ellipse cx="16" cy="16" rx="11" ry="5.5" transform="rotate(30 16 16)"/>
    <ellipse cx="16" cy="16" rx="11" ry="5.5" transform="rotate(45 16 16)"/>
    <ellipse cx="16" cy="16" rx="11" ry="5.5" transform="rotate(60 16 16)"/>
    <ellipse cx="16" cy="16" rx="11" ry="5.5" transform="rotate(75 16 16)"/>
    <ellipse cx="16" cy="16" rx="11" ry="5.5" transform="rotate(90 16 16)"/>
    <ellipse cx="16" cy="16" rx="11" ry="5.5" transform="rotate(105 16 16)"/>
    <ellipse cx="16" cy="16" rx="11" ry="5.5" transform="rotate(120 16 16)"/>
    <ellipse cx="16" cy="16" rx="11" ry="5.5" transform="rotate(135 16 16)"/>
    <ellipse cx="16" cy="16" rx="11" ry="5.5" transform="rotate(150 16 16)"/>
    <ellipse cx="16" cy="16" rx="11" ry="5.5" transform="rotate(165 16 16)"/>
  </g>
  <circle cx="16" cy="16" r="2.5" fill="#10B981" opacity="0.6"/>
  <circle cx="16" cy="16" r="1.2" fill="#10B981"/>
</svg>
